<svg xmlns="http://www.w3.org/2000/svg" viewBox="0 0 33.75 50.16" width="32px" height="32px"><g id="Layer_2" data-name="Layer 2"><g id="Layer_1-2" data-name="Layer 1"><path d="M31.46,8.38a17.41,17.41,0,0,0-6.09-6.09A16.54,16.54,0,0,0,16.88,0a16.55,16.55,0,0,0-8.5,2.29A17.41,17.41,0,0,0,2.29,8.38,16.55,16.55,0,0,0,0,16.88a15.17,15.17,0,0,0,.7,4.21,39.07,39.07,0,0,0,1.82,4.75A107.4,107.4,0,0,0,7.73,35.92C9.3,38.65,11,41.47,13,44.36q1.47,2.22,2.4,3.57l1.53,2.23,3.92-5.8Q23.67,40,26,35.92a107.4,107.4,0,0,0,5.21-10.08,39.07,39.07,0,0,0,1.82-4.75,15.17,15.17,0,0,0,.7-4.21A16.55,16.55,0,0,0,31.46,8.38ZM17,25.77a9,9,0,1,1,9-9A9,9,0,0,1,17,25.77Z"/></g></g></svg>