<svg xmlns="http://www.w3.org/2000/svg" viewBox="0 0 34.75 51.55" width="32px" height="32px"><defs><style>.cls-1{fill:none;stroke:red;stroke-miterlimit:10;}</style></defs><g id="Layer_2" data-name="Layer 2"><g id="Layer_1-2" data-name="Layer 1"><path class="cls-1" d="M32,8.88a17.41,17.41,0,0,0-6.09-6.09A16.54,16.54,0,0,0,17.38.5a16.55,16.55,0,0,0-8.5,2.29A17.41,17.41,0,0,0,2.79,8.88,16.55,16.55,0,0,0,.5,17.38a15.17,15.17,0,0,0,.7,4.21A39.07,39.07,0,0,0,3,26.34,107.4,107.4,0,0,0,8.23,36.42c1.57,2.73,3.3,5.55,5.22,8.44q1.47,2.22,2.4,3.57l1.53,2.23,3.92-5.8q2.86-4.34,5.22-8.44a107.4,107.4,0,0,0,5.21-10.08,39.07,39.07,0,0,0,1.82-4.75,15.17,15.17,0,0,0,.7-4.21A16.55,16.55,0,0,0,32,8.88ZM17.47,26.27a9,9,0,1,1,9-9A9,9,0,0,1,17.47,26.27Z"/></g></g></svg>
