<svg id="Capa_1" enable-background="new 0 0 531.765 531.765" height="512" viewBox="0 0 531.765 531.765" width="512" xmlns="http://www.w3.org/2000/svg"><path d="m448.676 99.706h-83.088c0-54.981-44.725-99.706-99.706-99.706s-99.706 44.725-99.706 99.706v33.235h-83.088c-27.49 0-49.853 22.362-49.853 49.853s22.362 49.853 49.853 49.853h83.088v199.412h-49.853c-9.185 0-16.618 7.432-16.618 16.618v66.471c0 9.185 7.433 16.618 16.618 16.618h299.118c9.185 0 16.618-7.433 16.618-16.618v-66.471c0-9.185-7.433-16.618-16.618-16.618h-49.853v-232.647h33.235v16.618c0 9.185 7.432 16.618 16.618 16.618h66.471c9.185 0 16.618-7.432 16.618-16.618v-66.471c-.001-27.491-22.363-49.853-49.854-49.853zm-249.264 0c0-36.66 29.811-66.471 66.471-66.471s66.471 29.811 66.471 66.471v332.353h-132.942zm-116.324 99.706c-9.169 0-16.618-7.449-16.618-16.618s7.449-16.618 16.618-16.618h83.088v33.235h-83.088zm315.735 265.882v33.235h-265.882v-33.235zm66.471-265.882h-33.235v-16.618c0-9.185-7.433-16.618-16.618-16.618h-49.853v-33.235h83.088c9.169 0 16.618 7.449 16.618 16.618z"/><path d="m434.85 256.665c-3.684 5.534-36.026 55.111-36.026 92.306 0 27.491 22.362 49.853 49.853 49.853 27.49 0 49.853-22.362 49.853-49.853 0-37.195-32.343-86.772-36.026-92.306-6.168-9.25-21.487-9.25-27.654 0zm13.826 108.923c-9.169 0-16.618-7.449-16.618-16.618 0-14.135 8.276-33.933 16.618-50.064 8.341 16.131 16.618 35.929 16.618 50.064 0 9.169-7.449 16.618-16.618 16.618z"/></svg>